<?xml version="1.0" encoding="UTF-8" standalone="no"?>
<!-- Created with Inkscape (http://www.inkscape.org/) -->

<svg
   xmlns:dc="http://purl.org/dc/elements/1.1/"
   xmlns:cc="http://creativecommons.org/ns#"
   xmlns:rdf="http://www.w3.org/1999/02/22-rdf-syntax-ns#"
   xmlns:svg="http://www.w3.org/2000/svg"
   xmlns="http://www.w3.org/2000/svg"
   xmlns:xlink="http://www.w3.org/1999/xlink"
   xmlns:sodipodi="http://sodipodi.sourceforge.net/DTD/sodipodi-0.dtd"
   xmlns:inkscape="http://www.inkscape.org/namespaces/inkscape"
   width="42.694035mm"
   height="18.082844mm"
   viewBox="0 0 151.27807 64.073068"
   id="svg2"
   version="1.1"
   inkscape:version="0.91 r13725"
   sodipodi:docname="logo.svg">
  <defs
     id="defs4">
    <linearGradient
       inkscape:collect="always"
       id="linearGradient3411">
      <stop
         style="stop-color:#ffffff;stop-opacity:1;"
         offset="0"
         id="stop3413" />
      <stop
         style="stop-color:#c8b7be;stop-opacity:1"
         offset="1"
         id="stop3415" />
    </linearGradient>
    <inkscape:perspective
       sodipodi:type="inkscape:persp3d"
       inkscape:vp_x="0 : 14.320001 : 1"
       inkscape:vp_y="0 : 1000 : 0"
       inkscape:vp_z="115.845 : 14.320001 : 1"
       inkscape:persp3d-origin="57.922498 : 9.5466673 : 1"
       id="perspective3378" />
    <radialGradient
       inkscape:collect="always"
       xlink:href="#linearGradient3411"
       id="radialGradient3419"
       cx="206.35753"
       cy="169.37863"
       fx="206.35753"
       fy="169.37863"
       r="57.922501"
       gradientTransform="matrix(0.02560283,0.74079739,-1.0930365,0.0377883,344.9717,55.568201)"
       gradientUnits="userSpaceOnUse" />
    <radialGradient
       inkscape:collect="always"
       xlink:href="#linearGradient3411"
       id="radialGradient3421"
       gradientUnits="userSpaceOnUse"
       gradientTransform="matrix(0.02560283,0.74079739,-1.0930365,0.0377883,344.9717,55.568201)"
       cx="206.35753"
       cy="169.37863"
       fx="206.35753"
       fy="169.37863"
       r="57.922501" />
    <radialGradient
       inkscape:collect="always"
       xlink:href="#linearGradient3411"
       id="radialGradient3423"
       gradientUnits="userSpaceOnUse"
       gradientTransform="matrix(0.02560283,0.74079739,-1.0930365,0.0377883,344.9717,55.568201)"
       cx="206.35753"
       cy="169.37863"
       fx="206.35753"
       fy="169.37863"
       r="57.922501" />
    <radialGradient
       inkscape:collect="always"
       xlink:href="#linearGradient3411"
       id="radialGradient3425"
       gradientUnits="userSpaceOnUse"
       gradientTransform="matrix(0.02560283,0.74079739,-1.0930365,0.0377883,344.9717,55.568201)"
       cx="206.35753"
       cy="169.37863"
       fx="206.35753"
       fy="169.37863"
       r="57.922501" />
    <radialGradient
       inkscape:collect="always"
       xlink:href="#linearGradient3411"
       id="radialGradient3427"
       gradientUnits="userSpaceOnUse"
       gradientTransform="matrix(0.02560283,0.74079739,-1.0930365,0.0377883,344.9717,55.568201)"
       cx="206.35753"
       cy="169.37863"
       fx="206.35753"
       fy="169.37863"
       r="57.922501" />
    <radialGradient
       inkscape:collect="always"
       xlink:href="#linearGradient3411"
       id="radialGradient3429"
       gradientUnits="userSpaceOnUse"
       gradientTransform="matrix(0.02560283,0.74079739,-1.0930365,0.0377883,344.9717,55.568201)"
       cx="206.35753"
       cy="169.37863"
       fx="206.35753"
       fy="169.37863"
       r="57.922501" />
    <radialGradient
       inkscape:collect="always"
       xlink:href="#linearGradient3411"
       id="radialGradient3431"
       gradientUnits="userSpaceOnUse"
       gradientTransform="matrix(0.02560283,0.74079739,-1.0930365,0.0377883,344.9717,55.568201)"
       cx="206.35753"
       cy="169.37863"
       fx="206.35753"
       fy="169.37863"
       r="57.922501" />
    <radialGradient
       inkscape:collect="always"
       xlink:href="#linearGradient3411"
       id="radialGradient3433"
       gradientUnits="userSpaceOnUse"
       gradientTransform="matrix(0.02560283,0.74079739,-1.0930365,0.0377883,344.9717,55.568201)"
       cx="206.35753"
       cy="169.37863"
       fx="206.35753"
       fy="169.37863"
       r="57.922501" />
  </defs>
  <sodipodi:namedview
     id="base"
     pagecolor="#ffffff"
     bordercolor="#666666"
     borderopacity="1.0"
     inkscape:pageopacity="0.0"
     inkscape:pageshadow="2"
     inkscape:zoom="1.979899"
     inkscape:cx="17.810316"
     inkscape:cy="9.2886753"
     inkscape:document-units="px"
     inkscape:current-layer="layer1"
     showgrid="false"
     inkscape:window-width="1366"
     inkscape:window-height="704"
     inkscape:window-x="0"
     inkscape:window-y="27"
     inkscape:window-maximized="1"
     fit-margin-top="5"
     fit-margin-left="5"
     fit-margin-right="5"
     fit-margin-bottom="5" />
  <metadata
     id="metadata7">
    <rdf:RDF>
      <cc:Work
         rdf:about="">
        <dc:format>image/svg+xml</dc:format>
        <dc:type
           rdf:resource="http://purl.org/dc/dcmitype/StillImage" />
        <dc:title></dc:title>
      </cc:Work>
    </rdf:RDF>
  </metadata>
  <g
     inkscape:label="Calque 1"
     inkscape:groupmode="layer"
     id="layer1"
     transform="translate(-131.92973,-195.38523)">
    <g
       transform="translate(38.571429,43.571429)"
       style="font-style:normal;font-variant:normal;font-weight:bold;font-stretch:normal;font-size:40px;line-height:125%;font-family:Caladea;-inkscape-font-specification:'Caladea Bold';letter-spacing:0px;word-spacing:0px;fill:url(#radialGradient3419);fill-opacity:1;stroke:none;stroke-width:1px;stroke-linecap:butt;stroke-linejoin:miter;stroke-opacity:1"
       id="flowRoot3336">
      <path
         d="m 118.79484,198.05034 q -2.16,0 -3.52,-1.16 -1.36,-1.16 -1.36,-3.52 l 0,-12 -2.84,0 0,-1.84 q 4.16,-1.56 5.96,-5 l 2.6,0 0,4.24 5.12,0 0,2.6 -5.16,0 0,11.68 q 0,2.12 1.92,2.12 1.44,0 2.88,-1 l 0.8,1.4 q -2.76,2.48 -6.4,2.48 z"
         style="font-style:normal;font-variant:normal;font-weight:bold;font-stretch:normal;font-family:Caladea;-inkscape-font-specification:'Caladea Bold';fill:url(#radialGradient3421);fill-opacity:1"
         id="path3364"
         inkscape:connector-curvature="0" />
      <path
         d="m 128.92422,183.73034 q 0,-1.44 -0.56,-1.96 -0.56,-0.56 -1.96,-0.64 l 0.12,-1.56 q 6,-1.12 6.84,-1.36 l 0.72,0.36 0.32,2.64 q 2.04,-2.96 5.16,-2.96 1.56,0 2.68,1.08 1.16,1.04 1.16,2.56 0,1.48 -0.84,2.32 -0.8,0.8 -1.96,0.8 -1.16,0 -1.88,-1 0.56,-0.68 0.56,-1.32 0,-0.64 -0.56,-1.04 -0.52,-0.4 -1.28,-0.4 -0.76,0 -1.6,0.72 -0.8,0.68 -1.28,1.8 l 0,11.48 q 0.92,0.72 2.4,1.08 l -0.16,1.56 -10.12,0 0.12,-1.64 q 1.28,-0.24 2.12,-1 l 0,-11.52 z"
         style="font-style:normal;font-variant:normal;font-weight:bold;font-stretch:normal;font-family:Caladea;-inkscape-font-specification:'Caladea Bold';fill:url(#radialGradient3423);fill-opacity:1"
         id="path3366"
         inkscape:connector-curvature="0" />
      <path
         d="m 152.96172,198.17034 q -2.72,0 -4.36,-1.64 -1.64,-1.64 -1.64,-4.52 l 0,-8.28 q 0,-1.44 -0.56,-1.96 -0.52,-0.56 -1.92,-0.64 l 0.12,-1.56 q 0.52,-0.12 2.2,-0.4 3.84,-0.6 5.12,-0.96 l 0.68,0.36 0,13.08 q 0,3.84 2.48,3.84 1.04,0 2,-0.6 1,-0.6 1.6,-1.6 l 0,-9.56 q 0,-1.44 -0.56,-1.96 -0.56,-0.56 -1.96,-0.64 l 0.12,-1.56 q 0.52,-0.12 2.2,-0.4 3.84,-0.6 5.12,-0.96 l 0.72,0.36 0,16.84 q 0.88,0.76 2.76,1.08 l -0.12,1.4 -7.64,0 -0.4,-2.56 q -2.32,2.84 -5.96,2.84 z"
         style="font-style:normal;font-variant:normal;font-weight:bold;font-stretch:normal;font-family:Caladea;-inkscape-font-specification:'Caladea Bold';fill:url(#radialGradient3425);fill-opacity:1"
         id="path3368"
         inkscape:connector-curvature="0" />
      <path
         d="m 186.14984,195.17034 q -2.88,3 -7.44,3 -4.56,0 -6.96,-2.48 -2.4,-2.48 -2.4,-7.32 0,-4.88 2.4,-7.44 2.44,-2.6 7.04,-2.6 3.08,0 5,1.16 1.96,1.12 1.96,2.92 0,1.16 -0.92,1.96 -0.88,0.8 -2,0.8 -1.12,0 -1.92,-0.48 -0.76,-0.48 -1,-1.2 0.48,-0.72 0.48,-1.52 0,-0.84 -0.56,-1.32 -0.56,-0.48 -1.4,-0.48 -3.2,0 -3.2,7.8 0,4.28 1.04,6.08 1.08,1.8 3.6,1.8 2.52,0 4.84,-2.12 l 1.44,1.44 z"
         style="font-style:normal;font-variant:normal;font-weight:bold;font-stretch:normal;font-family:Caladea;-inkscape-font-specification:'Caladea Bold';fill:url(#radialGradient3427);fill-opacity:1"
         id="path3370"
         inkscape:connector-curvature="0" />
      <path
         d="m 188.29797,195.01034 q 0,-3.08 2.8,-3.08 2.8,0 2.8,3.08 0,3.04 -2.8,3.04 -1.4,0 -2.12,-0.8 -0.68,-0.84 -0.68,-2.24 z"
         style="font-style:normal;font-variant:normal;font-weight:bold;font-stretch:normal;font-family:Caladea;-inkscape-font-specification:'Caladea Bold';fill:url(#radialGradient3429);fill-opacity:1"
         id="path3372"
         inkscape:connector-curvature="0" />
      <path
         d="m 211.71484,175.41034 -2.92,0 q -0.28,-2.36 -0.84,-3.32 -0.56,-1 -1.64,-1 -1.04,0 -1.68,0.92 -0.6,0.88 -0.6,1.96 0,1.04 0.4,2.6 0.4,1.52 0.4,2.2 l 4.16,0 0,2.52 -4.16,0 0,14.12 q 0.92,0.68 3.44,1.12 l -0.12,1.36 -11.76,0 0.16,-1.44 q 1.68,-0.28 2.64,-1.04 l 0,-14.12 -3.16,0 -0.2,-1.6 q 2.04,-0.32 3.36,-0.92 l 0,-1.76 q 0,-3.32 2.04,-5.4 2.08,-2.08 5.08,-2.08 3.04,0 5.4,1.48 l 0,4.4 z"
         style="font-style:normal;font-variant:normal;font-weight:bold;font-stretch:normal;font-family:Caladea;-inkscape-font-specification:'Caladea Bold';fill:url(#radialGradient3431);fill-opacity:1"
         id="path3374"
         inkscape:connector-curvature="0" />
      <path
         d="m 212.43984,183.73034 q 0,-1.44 -0.56,-1.96 -0.56,-0.56 -1.96,-0.64 l 0.12,-1.56 q 6,-1.12 6.84,-1.36 l 0.72,0.36 0.32,2.64 q 2.04,-2.96 5.16,-2.96 1.56,0 2.68,1.08 1.16,1.04 1.16,2.56 0,1.48 -0.84,2.32 -0.8,0.8 -1.96,0.8 -1.16,0 -1.88,-1 0.56,-0.68 0.56,-1.32 0,-0.64 -0.56,-1.04 -0.52,-0.4 -1.28,-0.4 -0.76,0 -1.6,0.72 -0.8,0.68 -1.28,1.8 l 0,11.48 q 0.92,0.72 2.4,1.08 l -0.16,1.56 -10.12,0 0.12,-1.64 q 1.28,-0.24 2.12,-1 l 0,-11.52 z"
         style="font-style:normal;font-variant:normal;font-weight:bold;font-stretch:normal;font-family:Caladea;-inkscape-font-specification:'Caladea Bold';fill:url(#radialGradient3433);fill-opacity:1"
         id="path3376"
         inkscape:connector-curvature="0" />
    </g>
  </g>
</svg>
