<?xml version="1.0" encoding="UTF-8" standalone="no"?>
<!-- Created with Inkscape (http://www.inkscape.org/) -->

<svg
   xmlns:dc="http://purl.org/dc/elements/1.1/"
   xmlns:cc="http://creativecommons.org/ns#"
   xmlns:rdf="http://www.w3.org/1999/02/22-rdf-syntax-ns#"
   xmlns:svg="http://www.w3.org/2000/svg"
   xmlns="http://www.w3.org/2000/svg"
   xmlns:sodipodi="http://sodipodi.sourceforge.net/DTD/sodipodi-0.dtd"
   xmlns:inkscape="http://www.inkscape.org/namespaces/inkscape"
   width="6.9133911mm"
   height="8.0564861mm"
   viewBox="0 0 24.496269 28.546604"
   id="svg2"
   version="1.1"
   inkscape:version="0.91 r13725"
   sodipodi:docname="panier.svg">
  <defs
     id="defs4" />
  <sodipodi:namedview
     id="base"
     pagecolor="#ffffff"
     bordercolor="#666666"
     borderopacity="1.0"
     inkscape:pageopacity="0.0"
     inkscape:pageshadow="2"
     inkscape:zoom="11.820586"
     inkscape:cx="2.6002708"
     inkscape:cy="13.28604"
     inkscape:document-units="px"
     inkscape:current-layer="layer1"
     showgrid="false"
     inkscape:window-width="1366"
     inkscape:window-height="704"
     inkscape:window-x="0"
     inkscape:window-y="27"
     inkscape:window-maximized="1"
     fit-margin-top="0"
     fit-margin-left="0"
     fit-margin-right="0"
     fit-margin-bottom="0"
     inkscape:snap-bbox="true"
     inkscape:snap-bbox-midpoints="true"
     inkscape:snap-bbox-edge-midpoints="true"
     inkscape:bbox-nodes="true"
     inkscape:bbox-paths="true"
     inkscape:snap-global="true" />
  <metadata
     id="metadata7">
    <rdf:RDF>
      <cc:Work
         rdf:about="">
        <dc:format>image/svg+xml</dc:format>
        <dc:type
           rdf:resource="http://purl.org/dc/dcmitype/StillImage" />
        <dc:title />
      </cc:Work>
    </rdf:RDF>
  </metadata>
  <g
     inkscape:label="Calque 1"
     inkscape:groupmode="layer"
     id="layer1"
     transform="translate(-157.81487,-211.72118)">
    <path
       style="color:#000000;font-style:normal;font-variant:normal;font-weight:normal;font-stretch:normal;font-size:medium;line-height:normal;font-family:sans-serif;text-indent:0;text-align:start;text-decoration:none;text-decoration-line:none;text-decoration-style:solid;text-decoration-color:#000000;letter-spacing:normal;word-spacing:normal;text-transform:none;direction:ltr;block-progression:tb;writing-mode:lr-tb;baseline-shift:baseline;text-anchor:start;white-space:normal;clip-rule:nonzero;display:inline;overflow:visible;visibility:visible;opacity:1;isolation:auto;mix-blend-mode:normal;color-interpolation:sRGB;color-interpolation-filters:linearRGB;solid-color:#000000;solid-opacity:1;fill:#ffffff;fill-opacity:1;fill-rule:evenodd;stroke:none;stroke-width:3.5;stroke-linecap:butt;stroke-linejoin:miter;stroke-miterlimit:4;stroke-dasharray:none;stroke-dashoffset:0;stroke-opacity:1;color-rendering:auto;image-rendering:auto;shape-rendering:auto;text-rendering:auto;enable-background:accumulate"
       d="M 12.248047 0 C 6.8185572 0 2.3789062 4.4396609 2.3789062 9.8691406 L 0 9.8691406 L 0 12.777344 L 0 22.882812 L 0 25.638672 C 0 27.250212 1.2966533 28.546875 2.9082031 28.546875 L 21.585938 28.546875 C 23.197476 28.546875 24.496094 27.250212 24.496094 25.638672 L 24.496094 22.882812 L 24.496094 12.777344 L 24.496094 9.8691406 L 22.117188 9.8691406 C 22.117188 4.4396609 17.677527 0 12.248047 0 z M 12.248047 3.5976562 C 15.733667 3.5976562 18.519531 6.3835208 18.519531 9.8691406 L 11.482422 9.8691406 L 5.9765625 9.8691406 C 5.9765625 6.3835208 8.7624171 3.5976562 12.248047 3.5976562 z M 13.572266 12.869141 C 15.85616 12.869141 16.847656 13.630859 16.847656 13.630859 L 16.371094 15.400391 C 16.371094 15.400391 15.113888 14.746094 13.662109 14.746094 C 12.210331 14.746094 11.164583 15.75583 10.544922 16.853516 L 14.050781 16.853516 L 14.050781 18.587891 L 9.9785156 18.587891 C 9.9431064 18.85346 9.9082031 19.11907 9.9082031 19.402344 C 9.9082031 19.490867 9.9257812 19.579446 9.9257812 19.667969 L 13.519531 19.667969 L 13.519531 21.419922 L 10.333984 21.419922 C 10.918237 22.765472 12.103092 23.597656 13.802734 23.597656 C 14.47551 23.597656 15.220492 23.457481 16.070312 23.121094 L 16.388672 22.996094 L 16.990234 24.642578 L 16.724609 24.785156 C 15.910197 25.174658 14.79439 25.546875 13.501953 25.546875 C 10.863966 25.546875 8.8816331 23.969386 8.2265625 21.419922 L 6.3320312 21.419922 L 6.3320312 19.667969 L 7.9960938 19.667969 L 7.9960938 19.402344 C 7.9960938 19.136775 8.03125 18.85346 8.03125 18.587891 L 6.8632812 18.587891 L 6.8632812 16.853516 L 8.4042969 16.853516 C 9.2010043 14.587325 11.09362 12.869141 13.572266 12.869141 z "
       transform="translate(157.81487,211.72118)"
       id="path3341" />
  </g>
</svg>
